<svg width="256" height="256" viewBox="0 0 256 256" fill="none" xmlns="http://www.w3.org/2000/svg">
<path fill-rule="evenodd" clip-rule="evenodd" d="M254.86 145.155C255.612 139.543 256 133.817 256 128C256 57.3076 198.692 0 128 0C89.4366 0 54.8562 17.0536 31.3891 44.0308L194.852 118H243V128H216.951L254.86 145.155ZM209.674 128L254.408 148.243C253.042 156.844 250.818 165.16 247.828 173.1L148.162 128H209.674ZM187.575 118L29.3697 46.4099C23.9103 53.0021 19.0992 60.1506 15.0339 67.7578L126.063 118H187.575ZM118.786 118L13.6492 70.424C10.2301 77.2014 7.3957 84.3243 5.21244 91.7262L63.2742 118H118.786ZM85.373 128L118 142.764V128H85.373ZM78.0962 128L118 146.057V255.615C51.9813 250.514 0 195.327 0 128C0 116.462 1.52663 105.28 4.3889 94.6464L55.9974 118H13V128H78.0962ZM138 128H140.885L246.736 175.899C243.854 183.038 240.347 189.857 236.282 196.288L138 151.814V128ZM138 155.107V255.615C178.334 252.498 213.428 230.687 234.631 198.834L138 155.107Z" fill="#888888"/>
</svg>
