<svg width="256" height="256" viewBox="0 0 256 256" fill="none" xmlns="http://www.w3.org/2000/svg">
<circle cx="128" cy="128" r="128" fill="#333333"/>
<path fill-rule="evenodd" clip-rule="evenodd" d="M254.86 145.373C255.612 139.754 256 134.018 256 128.193C256 57.3938 198.692 0 128 0C89.4366 0 54.8562 17.0793 31.3891 44.0971L194.885 118.193H243V128.193H216.951L254.86 145.373ZM209.683 128.193L254.409 148.462C253.042 157.078 250.819 165.408 247.828 173.361L148.162 128.193H209.683ZM187.617 118.193L29.3722 46.4768C23.9118 53.0797 19.0998 60.24 15.0339 67.8598L126.096 118.193H187.617ZM118.829 118.193L13.6509 70.5267C10.231 77.3153 7.39606 84.45 5.21244 91.8643L63.3075 118.193H118.829ZM85.373 128.193L118 142.979V128.193H85.373ZM78.1052 128.193L118 146.273V256C51.9813 250.891 0 195.621 0 128.193C0 116.636 1.52698 105.436 4.38989 94.7853L56.0397 118.193H13V128.193H78.1052ZM138 128.193H140.894L246.738 176.161C243.855 183.311 240.347 190.141 236.282 196.584L138 152.043V128.193ZM138 155.337V256C178.335 252.878 213.431 231.033 234.633 199.13L138 155.337Z" fill="#888888"/>
</svg>
